<svg width="78" height="61" viewBox="0 0 78 61" fill="none" xmlns="http://www.w3.org/2000/svg">
<path d="M77.7956 36.4306V0H0V36.4306H35.6721V43.2582C33.866 43.837 32.245 44.8931 30.81 46.4287C29.0131 48.4115 27.9215 50.7205 27.5362 53.3536C27.5045 53.6466 27.4718 53.9386 27.4401 54.2317H31.9169V58.4262C32.013 59.1417 32.1898 59.6614 32.4463 59.9866C32.7673 60.3769 33.1526 60.5716 33.6013 60.5716C34.0183 60.5716 34.3873 60.3769 34.7082 59.9866C34.9648 59.6614 35.1416 59.1417 35.2377 58.4262V54.2317H43.0843V58.4262C43.1803 59.1417 43.3572 59.6614 43.6137 59.9866C43.9346 60.3769 44.32 60.5716 44.7687 60.5716C45.1857 60.5716 45.5547 60.3769 45.8756 59.9866C46.1321 59.6614 46.309 59.1417 46.405 58.4262V54.2317H50.8818C50.8501 53.9386 50.8174 53.6466 50.7857 53.3536C50.4004 50.7205 49.2935 48.4115 47.4639 46.4287C46.0586 44.9045 44.4702 43.8484 42.6979 43.2582V36.4306H77.7925M72.9815 22.2876V31.0173H5.19938V22.2876H72.9815ZM53.3399 9.70508V12.1922H22.1927V9.70508H53.3399ZM57.9138 14.2403V19.9465H22.1927V14.2403H57.9128M5.19938 19.9465V6.33993H18.6307V19.9465H5.19938Z" fill="#65B946"/>
</svg>
